@startuml
class PasteObjectCommand {
    + <<override>> Execute() : void
    + <<override>> Undo() : void
    + <<override>> Redo() : void
    + <<override>> ClearFirstUndo() : void
    + <<override>> ClearRedo() : void
}
class "LinkedList`1"<T> {
}
class "Stack`1"<T> {
}
BaseObjectCommands <|-- PasteObjectCommand
PasteObjectCommand --> "undoLinkedList<SceneObject[]>" "LinkedList`1"
PasteObjectCommand --> "redoStack<SceneObject[]>" "Stack`1"
PasteObjectCommand --> "undoPrevSelected<SceneObject[]>" "LinkedList`1"
PasteObjectCommand --> "redoPrevSelected<SceneObject[]>" "Stack`1"
@enduml
